<svg xmlns="http://www.w3.org/2000/svg" width="154" height="120" viewBox="0 0 40.746 31.75" xmlns:v="https://vecta.io/nano"><style><![CDATA[.F{fill:#a6c169}.G{fill:#81ad58}.H{fill:#b5c676}.I{fill-rule:evenodd}]]></style><defs><clipPath id="A"><path d="M0 841.89h595.276V0H0z"/></clipPath></defs><path d="M0 0h40.746v31.75H0z" fill="#244f24" class="I"/><g clip-path="url(#A)" transform="matrix(.35278 0 0 -.352778 -102.29024 174.900551)"><g class="I"><g class="F"><path d="M343.042 486.962c.268.744.693-.046 1.125 0 .316.034 1.353.682 1.127.75.818-.247-.026-1.092.75-1.5.088-.046 1.112.063 1.125 0 .236-1.15-.916-1.126-1.501-1.877-.239 1.511-1.478 2.025-2.626 2.627m-5.269-30.25c.268.744.693-.046 1.125 0 .317.034 1.353.682 1.127.75.818-.247-.026-1.092.749-1.5.089-.046 1.113.063 1.127 0 .236-1.15-.918-1.127-1.501-1.877-.24 1.511-1.479 2.025-2.627 2.627m1.14 15.991c-.167-1.717-1.613.572-1.876-.375-1.15-1.378-1.424.103-2.251 0-.21-.027-.442-1.105-1.126-.751-1.417.276-.266 2.249.376 2.626.495.292.971-.458 1.501-.374.573.09 1.344.478.75 1.125.12-.663-2.103-.67-1.501.375.047.83 1.592.16 2.251.376.682 1.062-1.146.573-1.5.749-.175.089.275 1.345-.115 1.209-.223-.077-.818-2.394-1.011-2.709-.212-.346-1.281-.36-1.502-.751-.396-.706-.174-1.971-.375-2.626-.38-1.239-2.322-4.465-2.447-5.103 1.711-.008 1.88 4.29 3.198 4.728-.046-.016 1.126-1.046 1.501 0 .959-.197 1.314-.498 1.876.375 1.163-.527 3.151.025 2.251 1.126"/></g><path d="M349.481 471.375c-.011-.016-.018-.036-.026-.054.008.018.015.038.026.054m.055.064a.2.2 0 0 1-.036-.041.2.2 0 0 0 .036.041m.065.051c-.016-.01-.029-.022-.045-.033l.045.033m.077.038c-.018-.008-.035-.017-.051-.026l.051.026m.091.028c-.022-.005-.043-.013-.063-.02l.063.02m.205.03l-.09-.009.09.009m-.107-.011l-.075-.014.075.014m4.808 2.629c-1.439.063-.568-2.184-2.626-1.501.105-.606-.355-.646-.376-1.126h-.749-.026c-.291-.013-.634.028-.915.009.281.019.624-.022.915-.009-.123.103-.681 1.04-1.102 1.126-.378.077-.691-.697-1.125-.75.084.009-1.391.694-1.502.375-.162-.47 1.376-2.495 2.253-1.126a.38.38 0 0 0 .022.094.38.38 0 0 1-.022-.094c.712.111 1.031-.817 2.251-.751 1.33.073-.166.584 1.126 1.126.329.138 1.675-.26 1.876 0 .007.008-.284 1.841 0 2.627" class="G"/><g class="F"><path d="M344.167 471.202c1.465-.125.75-2.22.375-2.627-.223-.244-1.529.091-1.876 0-.663-.176-1.045-1.232-2.627-.75-.121.037-.703.745-.749.75-.977.087-1.396-.646-1.878-.375-.959.54-.7 1.497-.75 1.876.637.259.539-1.039.75-1.125.494-.205 1.032.563 2.252.374 1.022-.157 1.072-1.398 2.252-.374-.032-.029.548.786.375.75.307.064.846-.962 1.126-.75.729.547.976 1.215.75 2.251m-3.001-8.256c1.413-1.547-3.903-2.764-3.377-.375.445-.336 3.552-1.057 3.377.375"/></g><path d="M354.953 461.28c-.717-.781-.433.151-.749.375-.302.212-1.246-.254-1.502 0-.044.044.037.749 0 .75-.63.025-1.168-.076-1.125-1.125-1.674-1.938-3.191.468-4.129 1.501.601-1.776 1.091-3.664 3.377-3.752.424.451 1.072.679.752 1.876.898-.228 1.712-.54 3.002-.376.702-.02.794.289.374.751" class="G"/><g class="F"><path d="M353.173 455.066c-.475-.461-2.044-1.359-2.626 0-.065.152-.526 1.388-.376 1.501.917.69 4.116.436 3.755-1.501-.013-.06-.695.056-.753 0m-12.382-3.377c-.093-1.713-.75.392-1.127.375-.461-.021-.906-.707-1.5-.75-1.197-.086-2.179.519-2.253 2.251 1.304-.516.402-1.203 1.126-1.501 1.352-.556 2.209 1.302 3.002 1.126.29-.064-.397-.538-.375-.375-.083-.565.924-1.066 1.127-1.126m4.01-13.948c-.092-1.712-.749.392-1.125.375-.462-.021-.908-.708-1.5-.75-1.198-.086-2.178.519-2.253 2.251 1.301-.516.403-1.204 1.126-1.501 1.353-.556 2.21 1.3 3.002 1.126.287-.064-.4-.538-.375-.376-.083-.564.924-1.066 1.125-1.125m-4.74-23.611c-.092-1.713-.749.391-1.125.374-.461-.02-.909-.706-1.501-.75-1.196-.086-2.178.521-2.251 2.251 1.3-.515.4-1.203 1.125-1.501 1.352-.555 2.21 1.302 3.001 1.126.289-.062-.398-.538-.374-.375-.083-.564.923-1.065 1.125-1.125m.73 16.596c-.093-1.713-.75.391-1.127.375-.461-.021-.906-.708-1.5-.751-1.197-.086-2.179.52-2.253 2.251 1.304-.515.402-1.203 1.126-1.5 1.352-.557 2.209 1.3 3.002 1.126.29-.064-.397-.539-.375-.376-.083-.565.924-1.067 1.127-1.125"/></g><path d="M340.791 453.565c.893.625 3.422-.316 3.376-1.876-1.294.456-2.19 1.312-3.376 1.876" class="H"/><g class="F"><path d="M326.184 450.536c1.618-1.429 2.203-.927 3.35-.724.174-1.733-2.633-2.756-3.35.724m24.363-4.476c-1.062.346-.663 1.225-1.501 2.251-1.75-.845-1.655 2.058-2.626.751.982-.267.359-2.142 1.502-2.251.08-.627 1.005-.348 1.5-.751.123-.1-.095-.616 0-.751.028-.041.695-.327.749-.375 2.036-1.829 2.549.51 3.755 2.627-1.661-.064-1.696-2.049-3.379-1.501m-12.758-6.005c-.548-.703-1.237-1.266-1.878-1.875-.242.491-.381 1.855.376 2.25.747.392 1.611-.279 2.626 0-.061-.439-.685-.316-1.124-.375m15.384 0c-1.184.184-1.323-.676-2.626-.375-.602 2.232-.642 3.288-2.252 3.002-1.301-.231.486-1.081.751-1.5.396-.63.528-1.799 1.125-1.878.176-1.575 3.095-.408 2.254-3.001h.374v1.501c-.049.924-.058 1.808.374 2.251m.717-6.381c-1.095-.486-.748-1.285-2.008-1.734-1.712 1.552-2.316 2.417-3.515 1.307-.97-.898.993-.647 1.441-.857.673-.316 1.418-1.226 1.962-.971 1-1.23 2.824 1.329 3.518-1.307l.315.203-.812 1.262c-.541.752-1.026 1.491-.901 2.097m-4.844 3.005c2.447.72 1.566-2.665-.375-1.877.315.436.496 1.006.375 1.877"/></g><path d="M353.173 419.417h-.374c-.166-.334-.33-.672-.75-.751v-.751c-1.264-.862-2.481-1.771-3.378-3.002h-.376c-1.061-.563-1.734-1.517-3.377-1.501.517-.483.372-1.63.376-2.626.291.084.738.01.75.375-.692 2.231 1.427 2.85 1.878 1.125.563-1.131 1.12.836 1.5 1.126 1.868.882 4.413 1.091 4.127 4.128.73.697.258 1.516-.376 1.877" class="G"/><g class="F"><path d="M343.417 492.966c-1.393-.108-.156-2.846-1.501-3.002-1.569.435.134-.531-.375-1.5-.1-.192-1.095-.285-1.125-.376-.368-1.072.084-2.578-.377-3.377-.083-.148-.973.104-1.126 0-.632-.433-.4-2.468-.986-2.592.913-.445.787 1.337 1.363 1.841.439.385 1.231.397 1.501.751.176.232-.127.858 0 1.126.052.11.732.304.75.375.134.538-.679.936-.75.75.396 1.016 2.345 1.409 1.125 2.628 1.749-.123.573 2.679 1.876 3.001-.229.021-.443.057-.375.375"/><path d="M343.417 483.96c-.063.814 1.33.17 1.877.375.206-1.534-1.621-1.268-1.877-.375m-4.504-5.253c-.692-.437-2.01.128-2.626-1.125-1.415-.296-.382 1.328.75 1.876.106.051.701-.089.752 0 .2.358-.038 4.149.375 1.501.122-.79-.366-2.12.749-2.252m4.538-1.468c-.953-.989-1.519.071-1.875.75-2.211.501.102 3.24-1.5 4.128.075-1.082-.999-4.22 1.125-4.503.362-.888.658-1.843 2.25-1.5.071.303.377.374.376.75-.319-.07-.355.146-.376.375m-4.747-22.704c-.955-.988-1.52.071-1.877.75-2.21.501.102 3.24-1.501 4.128.077-1.081-.997-4.22 1.125-4.503.363-.888.659-1.844 2.253-1.5.07.303.377.374.375.75-.32-.069-.354.146-.375.375"/></g><g class="G"><path d="M353.549 477.206c-1.804.753.286 3.718-2.251 4.128-.24.335-.555.349-.751.75-.644 1.319.858 1.271.751 2.627-.101 1.271-1.656.927-1.127 2.627.12.871-.059 1.441-.375 1.877-.007 1.117-1.769.481-2.251 1.125-1.032.61-.856 2.588-1.877 3.753-.207.238-1.038.005-.75.751h-.751c.323-1.198-.59-1.161-.75-1.877-.068-.319.147-.354.375-.375.335.166.672.33.75.75.477-.807.817-.968.752-1.501-.043-.352-.893-.761-.752-1.126.346-.877 1.68.066 2.253-1.125.202-.422-.455-1.926.374-1.877.988-.111.296 1.457 1.502 1.127.439-.062.317-.685.375-1.127-.786-.749-.989-1.626.376-1.875.45-.494.146-.59 0-1.127-1.178-.736-2.926.579-1.127-1.501 2.219-.349.388-2.416 2.629-2.626 1.096-1.669-1.474.542-1.502-1.126-1.421-.318-.984 1.026-1.877.75-.625-.193.066-1.121.75-1.876.169-.308.326-.706.751-.75.987-.105 1.91 1.271 3.003.75.354-.169.266-.764.75-1.501-.012-.365-.459-.291-.75-.376h-.751c.068-.818-.308-1.193-1.127-1.125-.352.796-1.826 2.403-1.876.376h-1.5c-1.383.543.435 2.615-.751 3.752.009.93.601 2.134 0 2.626-.551.453-1.875-1.753-2.627-.375.248-1.294 1.389-.988 1.501-1.876.098-.775-1.24-.973-.751-2.251v-.376c.023-.229.056-.444.375-.375.002-.376-.303-.447-.375-.75.491-1.526-.774-1.886-1.501-1.126.019-3.024 2.752-.425 4.503-.751-.267-.608 1.771-.608 1.502 0h.375c.658.104 1.873-1.056 2.252 0 .406.094.255.746.751.751h1.5c-.915-1.347-.031-1.645-1.5-2.251 2.058-.684 1.187 1.563 2.626 1.5-1.469.681.486 2.466-1.126 3.002m1.502-5.629c-1.339-1.463 1.446-2.772-.752-3.377a1.4 1.4 0 0 0-1.874 0c-1.565.187.1-2.853-2.254-1.876-.07.304-.376.374-.375.751.447.862-2.314.646-2.251.75-.15-.247.889-2.099 1.877-1.876.709-.042.26-1.241 1.125-1.126-.17-.613 2.045-.613 1.878 0 .082.291.008.74.374.75.228.649 1.778-.029 1.876.751h1.501c.229.021.445.056.376.375.957 2.286-1.16 2.863-1.501 4.878m2.917-38.014c-1.34-1.463 1.446-2.772-.752-3.378-.492-.481-1.383-.481-1.876 0-1.561.187.102-2.853-2.25-1.876-.072.305-.378.374-.376.751.447.864-2.316.645-2.252.751-.151-.247.889-2.1 1.876-1.877.71-.042.262-1.241 1.126-1.125-.169-.614 2.045-.614 1.876 0 .084.291.011.738.375.75.229.647 1.781-.03 1.878.75h1.501c.228.022.442.055.375.376.957 2.285-1.158 2.862-1.501 4.878"/></g><g class="F"><path d="M333.205 466.611c.807-.163 1.069-1.075 1.876-.375.41.355.416 1.084 1.126.375.943-.944.815-.331 2.627 0-.588-.579-1.264-1.775-2.251-1.501-.181.049-.614 1.118-.751 1.126-.199.011-2.608-2.087-2.627.375m1.919-2.082c.807-.162 1.069-1.074 1.876-.375.41.356.417 1.085 1.126.375.942-.943.815-.331 2.628 0-.588-.578-1.265-1.774-2.252-1.501-.18.05-.614 1.119-.752 1.126-.197.011-2.606-2.087-2.626.375m.359-42.462c.809-.162 1.069-1.075 1.877-.375.409.355.417 1.084 1.125.375.943-.943.816-.331 2.628 0-.588-.578-1.265-1.775-2.252-1.501-.18.049-.614 1.118-.751 1.126-.198.01-2.606-2.087-2.627.375"/></g><g class="H"><path d="M338.164 458.443c-1.863-.486-.531 2.221-1.502 2.626-.727-1-.719-3.774 1.502-3.001.297.953 2.299.202 2.252 1.5-1.145.019-1.911-.341-2.252-1.125m-.912-31.634c-1.862-.485-.529 2.222-1.502 2.628-.726-1.001-.717-3.775 1.502-3.003.298.954 2.299.204 2.251 1.5-1.144.02-1.91-.34-2.251-1.125m1.951 17.37c-1.862-.486-.53 2.222-1.501 2.627-.726-1.001-.718-3.774 1.501-3.002.298.954 2.299.203 2.252 1.5-1.144.019-1.911-.339-2.252-1.125"/></g><g class="F"><path d="M332.159 461.445c.293.188-.245 1.605.75 1.125.188-.979 2.775-1.896 2.628 0-1.015.023-.942-.675-1.877-.374-.483.156-.582 2.329-1.126 1.125-1.263.08-1.711-1.698-2.627-1.125-.568.356.276 1.812-.749 2.251-.031-1.532.284-2.716 1.501-3.002-.047-1.297.732-1.769 1.125-2.627.162-.588 1.18-.32.75-1.501-.862-1.013-3.736-1.469-4.625-2.455 1.032.77 2.671-.242 3.5.204.571.308-.441 1.086.75 1.126.733.024.027-.872.375-1.126.82-.599 1.826.155 2.252 1.126-.562.064-1.384-.134-1.501.375.414 1.79-.48 2.273-1.126 3.002.229.021.444.057.375.375-.151.849-2.198-.198-1.5 1.501-.06.827 1.028-.062 1.125 0m-6.024-10.039c.995.006 2.209-.208 2.251.751-2.28.503-2.873-.07-2.251-1.501zm3.772 13.792c.996.006 2.21-.209 2.252.751-2.279.503-2.874-.071-2.252-1.502zm18.388-11.258c-.717.534-1.343 1.16-1.875 1.876-.005.497-.659.344-.752.751 1.198 1.886-1.307 5.477 1.501 6.004h.376c.118.508.533.717.377 1.501.51.063.45.966 0 1.126-.304.107-.656-.377-1.127-.375-.172 0-.206.503-.751.375-.378-.088-.812-.992-1.502-.75-.944.331.486 1.698-1.125 1.501.04-.961.213-1.789.75-2.252.023-.228.056-.444.375-.375-.12-.88-.593-1.409-.375-2.626-.515-.611.461-2.502.375-3.003-.005-.039-.708-.287-.75-.376-.707-1.495 1.232-1.724 2.252-2.251.458-1.71-1.029-1.472-.75-3.001 1.164-.04 1.07 1.18 2.628.75.922-1.496 3.15 1.999.373 1.125"/><path d="M326.416 453.45c1.817 1.416 1.035 1.981 1.125 0 .065-1.438.643-.789-1.125-.75zm5.368-.26c-.263.926-.843-.12-1.501 0-.063.012.063.703 0 .75-.451.343-2.704.186-1.877-.75 1.704.446 2.248-1.394 3.378-.375.546-1.642 2.36-.143 2.627.75-1.059-.038-1.595-1.414-2.627-.375m8.255-4.879c-.88.12-1.408.593-2.627.375.607.729 2.595 1.172 2.627-.375m5.629-3.752v.375c.519.14.85 7.469-.374 5.629-.98.106-1.614-.136-1.502-1.126-.295-1.288.351-1.934 1.126-1.126v-4.127c-1.146-.272-1.368.383-2.252.375-.248-1.581 2.469-1.322.751-2.252 1.866.313 1.485.934 2.627-.375-.175 1.667 2.465 3.537-.376 2.627m1.492-15.374v.349c.706.13 1.157 6.943-.512 5.232-1.338.099-2.201-.127-2.047-1.046-.402-1.198.479-1.799 1.535-1.046v-3.837c-1.563-.254-1.865.356-3.07.348-.34-1.47 3.366-1.229 1.025-2.093 2.545.291 2.024.867 3.581-.349-.24 1.55 3.36 3.287-.512 2.442m-16.943 14.911c-1.332.043-1.068 2.456-1.059 3.84.363-1.012.853-2.669 1.059-3.84m-1.187-6.517c-.935.951-.294 3.373.667 4.37-.435-.984-.008-3.38-.667-4.37m-.438-5.258c-.733.511-.549 2.284 0 3.122-.193-.746.344-2.336 0-3.122m5.068 13.364c-1.292.87 2.673 1.374 3.002.375-1.12-1.392-2.285.327-3.002-.375"/></g><path d="M333.284 448.49c-1.862-.486-.531 2.222-1.501 2.626-.726-.999-.719-3.774 1.501-3.001.298.953 2.3.203 2.253 1.501-1.145.019-1.911-.341-2.253-1.126" class="H"/><path d="M328.781 435.731c-1.293.871 2.673 1.374 3.002.375-1.119-1.392-2.285.328-3.002-.375" class="F"/><path d="M341.166 445.308c-.177 1.702 1.755 1.024 2.626.751-.33-1.294-1.507.094-2.626-.751" class="H"/><g class="F"><path d="M341.166 443.432c-.342-.785-1.106-1.143-2.253-1.126-1.041.057-1.21 1.799-2.251.751-1.432-.181-2.395.107-3.002.75.039.131-.35.755-.375.751-1.015-.154-2.373-1.571-3.752-1.501 1.586-1.918 2.267 1.375 3.752.375.634-.446 2.084-1.815 3.377-1.126.825.832 1.247-.657 2.251-.749 1.274-.127 3.185 1.039 2.253 1.875m2.826-7.84c-.342-.784-1.108-1.144-2.253-1.125-1.04.056-1.209 1.796-2.251.75-1.433-.182-2.394.106-3.002.751.039.13-.35.753-.375.75-1.015-.154-2.374-1.571-3.752-1.501 1.586-1.919 2.266 1.374 3.752.375.634-.447 2.084-1.815 3.377-1.125.826.831 1.248-.658 2.251-.75 1.274-.127 3.187 1.039 2.253 1.875m-8.83 3.712c.528-.874-1.594-.229-2.253-.75-.276-.219.24-.797.376-.75-1.413-.491-1.708-.659-3.002 0 .032.513.721.22 1.126.375.774.295 1.186 1.518 1.125 1.501.885.248 1.332-.87 2.628-.376m.729-15.04c.53-.875-1.594-.23-2.251-.752-.277-.218.239-.797.374-.749-1.412-.492-1.706-.659-3.002 0 .033.512.722.22 1.126.375.774.296 1.186 1.517 1.126 1.5.884.248 1.332-.869 2.627-.374"/></g><path d="M360.304 434.801c.133 1.369 2.224.778 1.501 3.003-.317.558-1.208.542-1.876.75.061.436-.084.668-.376.75-.071.304-.377.375-.375.751.949.302.957 1.545 1.501 2.251 1.198-.529.949 2.246.375 2.252-.07.305-.378.374-.375.75.314 1.941-.263 2.99-1.501 3.378-.993.507-1.381 2.979-.375 3.378v1.125c1.701 1.186 1.147 3.99-1.125 4.128-.275.35-.684.568-1.126.751v.375c1.224 1.111 1.064 2.622.75 4.503v2.251c-.052.7-.247 1.255-.75 1.501.069-.319-.147-.354-.376-.375.071-.304.377-.374.376-.751.377-1.252-.521-1.23-1.501-1.125-1.149-.272-1.104.647-2.252.375 1.274-1.228 2.572-2.431 4.128-3.377-.071-.304-.376-.374-.375-.75h-.752c.42-.462.327-.771-.375-.751v-.376c-.035-.589.051-1.301-.75-1.125h-1.876c-.856-.85.541-1.364 1.5-1.501.611-1.2 2.203-.595 3.003 0 .68-.357 1.738-.923.75-1.876-1.218-.219-1.746.255-2.627.375.073-1.928 2.387-1.618 2.627-3.377-.925-.051-1.808-.057-2.252.375-.538-2.039 1.929-1.075 1.878-2.627-.32.069-.355-.146-.376-.375.04.06-2.565.805-2.627.75-.744-.683.685-2.674 2.627-1.876.879-.239 2.017-.006 1.876-1.126-.178-1.416-1.081.124-1.5-1.501-.781-.815-1.213.046-1.878.375.012.547-.271 1.099-.749 1.126-.272.015-.242-2.656.749-2.627v-.375c.5-.535 2.127-.535 2.628 0 .342.651 1.314.97 1.876.375-.106-1.018-1.373-.878-1.501-1.876.062-.437-.082-.667-.375-.751-1.155-.278-.722 1.031-1.876.751-.178-1.178 1.009-.991 1.126-1.876v-.377c.959-.04.742-1.255.75-2.25-.436-.555-.436-.945 0-1.501-.435-.564-1.318-1.581 0-1.877-.265-2.083 1.951-.26 2.251-1.125.904-.154.816.686 1.877.375-.38.621-1.594.408-2.252.75m-6.755 17.263c-.282.343-.3 1.441-1.124 1.125.082-1.668.569-2.931 2.25-3.002.391 1.174-.698 1.356-1.126 1.877" class="G"/><g class="F"><path d="M331.409 430.298c.408 1.535-.402 1.851-1.126 2.252 1.005.247 1.426 1.076 2.251 1.502-.333-.919-.875-1.628-.75-3.003-.084-.291-.011-.74-.375-.751"/><path d="M331.409 429.173c-.527.701-2.234-.028-2.627 1.125-.203.599-.305 1.88 1.125 1.877-1.686-.876.217-1.8 1.502-1.877zm1.367-3.646c-.527.701-2.234-.028-2.626 1.125-.204.6-.306 1.88 1.125 1.877-1.687-.877.216-1.8 1.501-1.877zm16.646-.858c.061.437-.084.668-.376.751-1.883-.243-4.744.492-6.004-.376.532.034 1.064.063 1.125-.375 1.066-1.926-1.428-1.654-1.125.375h-.376v-1.5c.766-.235.106-1.896 1.501-1.501 1.026-.035.757.625 1.501 0h1.127c.318-.069.354.147.374.376-2.042-.404-.854 1.883 0 1.875h.753c1.23-.665-.438-1.52-.753-1.875.857-.105 1.411.09 1.502.749.005.746 1.023.479.751 1.501"/></g><path d="M361.054 419.791c.033.533.063 1.063-.375 1.126-.232 1.356-.14 3.082-1.876 3.752-1.4.252-2.202-1.039-2.251.751-.543-.458-.569-1.432-1.127-1.876 1.244-.077 2.46-.9 3.003.376 1.573.137.268-1.224.375-1.877.005-.746 1.025-.476.75-1.501-.745-.004-.477-1.023-1.501-.751-.604.521-1.476.775-1.876 1.501-.408.094-.255.747-.751.751-1.059.058-.94-1.06-1.499-1.501 1.176.178.99-1.01 1.874-1.125.235-.893 2.31.059 2.628-.751.756-.974 2.891-.164 2.626 1.125" class="G"/><g class="F"><path d="M334.786 420.167v.375c-1.462.038-3.682-3.078-.75-3.002.116-.509.94-.311 1.501-.375v.375c-.682.443-.295 1.957-.751 2.627m8.631-10.883v3.377.376h.75v-1.126c-1.074-.051.325-2.576-.75-2.627"/><path d="M342.291 409.659c-.009-.055-.69.051-.75 0-.043-.037.591-.823.375-1.125-.354-.494-1.838-.01-1.5-1.127h-.377c-.142 1.645 1.073 1.93 1.127 3.379 1.018-.27-.27 1.769.75 1.5 1.033.633 0-1.502 0-1.5.001-.326.473-.579.375-1.127m-1.125 3.378c.105-.607-.355-.646-.375-1.126-.703-1.048-.711-2.791-1.501-3.752.177-1.179-1.01-.992-1.126-1.877h.749c.7 1.052 4.108-.603 3.378 1.877.983.893-.537 4.289 1.126 4.502v.376z"/></g><path d="M347.169 408.91c-.74.261.094 2.093-.749 2.251h-.376c-.012-.365-.459-.291-.75-.375v-.375c-.991-.115-.969.783-1.127 1.5-1.074-.051.325-2.576-.75-2.627.031-.158-.809-2.005 0-2.627 2.216.275 3.019-.1 4.505 1.127.3-.261 1.026-.585 1.124 0 2.589.152.478 2.078-1.877 1.126" class="G"/></g><g fill="#fff"><path d="M292.195 423.163v-.323c0-1.558.497-2.347 1.529-2.347.941 0 1.411.913 1.411 1.863 0 1.344-.496 1.935-1.333 2.275l-1.019.485c-1.359.716-1.947 1.684-1.947 3.51 0 2.329 1.15 3.62 2.901 3.62 2.391 0 2.639-2.042 2.639-3.369v-.286h-1.49v.268c0 1.165-.379 1.846-1.307 1.846-.639 0-1.254-.484-1.254-1.846 0-1.092.406-1.648 1.399-2.168l1.006-.501c1.32-.645 1.895-1.63 1.895-3.385 0-2.724-1.202-3.853-3.084-3.853-2.313 0-2.836 2.114-2.836 3.906v.305zm8.116 9.512h1.568l-1.384-2.58h-.968zm.901-7.578v.519c0 1.219-.287 2.151-1.084 2.151-.901 0-1.175-1.218-1.175-2.472v-.198zm-2.259-1.326v-.555c0-1.29.117-2.938 1.175-2.938 1.006 0 1.123 1.577 1.123 2.15h1.334c0-2.131-.941-3.476-2.47-3.476-1.15 0-2.575.466-2.575 4.928 0 2.525.393 5.212 2.601 5.212 1.96 0 2.483-1.612 2.483-4.3v-1.021zm7.239 3.781c-.98 0-1.189-1.379-1.189-3.565 0-2.598.378-3.494 1.097-3.494 1.084 0 1.281 1.326 1.281 3.637 0 2.061-.222 3.422-1.189 3.422m1.109-7.22h-.025c-.262-.86-.836-1.38-1.607-1.38-1.098 0-2.156 1.04-2.156 4.945 0 3.314.653 5.196 2.3 5.196 1.006 0 1.358-.807 1.541-1.434h.027v1.183h1.332V416.05h-1.412zm6.366 0h-.039c-.353-.86-1.02-1.379-1.804-1.379-1.045 0-1.75.663-1.75 3.153v6.736h1.41v-6.915c0-1.075.354-1.433.954-1.433s1.151.537 1.151 1.612v6.736h1.412v-9.637h-1.334zm5.032.054c1.033 0 1.215 1.182 1.215 3.637 0 2.132-.182 3.636-1.215 3.636-1.021 0-1.203-1.504-1.203-3.636 0-2.455.182-3.637 1.203-3.637m0 8.707c2.051 0 2.626-2.078 2.626-5.07s-.667-5.071-2.626-5.071c-1.947 0-2.613 2.079-2.613 5.071s.575 5.07 2.613 5.07m3.777-.251h1.411v-9.638h-1.411zm0 3.296h1.411v-1.935h-1.411zm6.116-7.368c-.366-.415-1.149-.66-1.567-.944-.407-.283-.576-.887-.576-1.642 0-.849.287-1.528.875-1.528.85 0 1.268.925 1.268 2.415zm1.333-3.247c0-.377.157-.717.365-.717.092 0 .184.02.238.058v-1.322c-.171-.112-.419-.244-.695-.244-.626 0-1.15.358-1.188 1.339h-.027c-.379-1.001-.927-1.492-1.751-1.492-1.124 0-1.83.907-1.83 2.852 0 2.263.681 2.736 1.635 3.188l1.098.435c.509.207.822.414.822 1.302 0 .924-.222 1.51-.967 1.51-.94 0-1.072-.963-1.072-1.944h-1.332c0 2.152.614 3.34 2.47 3.34 1.241 0 2.234-.699 2.234-2.491zm39.114-.833h-.026c-.406-1.181-.941-1.738-2.038-1.738-2.039 0-2.772 2.079-2.772 6.648s.941 6.646 3.098 6.646c2.339 0 2.731-2.527 2.731-3.691v-.232h-1.412v.304c0 .949-.287 2.078-1.306 2.078-1.059 0-1.621-.967-1.621-5.052 0-4.121.496-5.16 1.503-5.16 1.137-.018 1.556 1.111 1.556 3.906h-1.568v1.541h2.979v-6.736h-1.124zm5.594 3.601c-.365-.394-1.149-.626-1.568-.896-.406-.269-.575-.842-.575-1.559 0-.805.288-1.45.875-1.45.849 0 1.268.877 1.268 2.293zm1.333-3.081c0-.358.157-.681.366-.681.091 0 .183.018.235.054v-1.254c-.169-.107-.418-.233-.694-.233-.626 0-1.148.341-1.187 1.272h-.028c-.379-.95-.927-1.416-1.75-1.416-1.125 0-1.829.86-1.829 2.706 0 2.15.68 2.597 1.633 3.028l1.099.412c.508.197.822.393.822 1.235 0 .878-.223 1.434-.968 1.434-.94 0-1.07-.914-1.07-1.846h-1.333c0 2.044.614 3.171 2.469 3.171 1.241 0 2.235-.663 2.235-2.364zm1.437 7.632h1.411v-1.505h.027c.313 1.075.836 1.755 1.632 1.755.159 0 .249-.035.341-.071v-1.971a1.98 1.98 0 0 1-.588.108c-.64 0-1.412-.394-1.412-2.186v-5.768h-1.411zm6.355-1.29c-.812 0-1.099-.896-1.099-3.494 0-2.185.209-3.565 1.19-3.565.967 0 1.188 1.362 1.188 3.422 0 2.311-.195 3.637-1.279 3.637m1.279-7.166h-.025c-.183-.627-.536-1.434-1.543-1.434-1.646 0-2.3 1.882-2.3 5.196 0 4.281 1.099 4.945 2.17 4.945.759 0 1.333-.52 1.595-1.38h.025v4.282h1.412v-12.791h-1.334zm6.169 4.712v.519c0 1.219-.287 2.15-1.084 2.15-.903 0-1.177-1.218-1.177-2.472v-.197zm-2.261-1.326v-.555c0-1.29.118-2.938 1.177-2.938 1.007 0 1.124 1.576 1.124 2.15h1.332c0-2.132-.941-3.477-2.469-3.477-1.15 0-2.575.466-2.575 4.928 0 2.526.393 5.213 2.601 5.213 1.96 0 2.482-1.613 2.482-4.3v-1.021zm4.836 5.07h1.333v-1.129h.039c.353.86 1.02 1.379 1.803 1.379 1.071 0 1.752-.663 1.752-2.615v-7.273h-1.412v6.611c0 1.253-.275 1.737-.98 1.737-.575 0-1.124-.627-1.124-1.88v-6.468h-1.411zm9.318-2.812v.25c0 .771-.195 1.487-.928 1.487-.561 0-1.006-.358-1.006-1.255 0-.752.249-1.056.994-1.414l.901-.43c1.046-.484 1.529-1.254 1.529-2.777 0-2.061-1.097-2.939-2.522-2.939-1.777 0-2.313 1.13-2.313 2.993v.358h1.254v-.305c0-1.111.288-1.719 1.098-1.719.771 0 1.151.537 1.151 1.415 0 .716-.275 1.182-.771 1.415l-1.151.556c-1.057.501-1.502 1.236-1.502 2.777 0 1.809.953 2.651 2.405 2.651 1.79 0 2.194-1.434 2.194-2.633v-.43z"/></g><path d="M344.092 424.749c-.223-.932-.479-1.998.222-2.674.976-.943 2.3-.472 3.285.547.765.792 1.062 1.6 1.466 2.522zm-4.889 8.058c.527-.507 1.746-.647 2.49-.378.302.965.52 2.341-.181 3.018-.551.531-1.621.525-2.222-.098-.765-.792-.761-1.89-.087-2.542m17.277-6.947c-.827-3.36-2.292-5.827-4.78-8.402-4.072-4.217-9.929-6.93-14.208-2.799-2.777 2.684-1.768 6.632.462 9.893-2.176-.251-4.024-.162-5.55 1.312-3.729 3.6-1.179 9.343 2.319 12.966 3.307 3.425 9.244 6.168 12.772 2.762 2.201-2.127 2.329-5.75.686-8.702l3.584.257c.508 2.026.389 4.057.319 6.038l7.962.132-.999-5.489 8.834.985-8.608-8.915z" fill="#fffa3f"/></g></svg>