<?xml version="1.0" encoding="UTF-8" standalone="no"?>
<svg
   xmlns:dc="http://purl.org/dc/elements/1.1/"
   xmlns:cc="http://creativecommons.org/ns#"
   xmlns:rdf="http://www.w3.org/1999/02/22-rdf-syntax-ns#"
   xmlns:svg="http://www.w3.org/2000/svg"
   xmlns="http://www.w3.org/2000/svg"
   xmlns:sodipodi="http://sodipodi.sourceforge.net/DTD/sodipodi-0.dtd"
   xmlns:inkscape="http://www.inkscape.org/namespaces/inkscape"
   width="40.175999mm"
   height="31.242493mm"
   viewBox="0 0 40.175999 31.242493"
   version="1.1"
   id="svg1072"
   inkscape:version="1.0.1 (3bc2e813f5, 2020-09-07)"
   sodipodi:docname="logo-sequoia-and-gardens.svg">
  <defs
     id="defs1066">
    <clipPath
       clipPathUnits="userSpaceOnUse"
       id="clipPath30">
      <path
         d="M 0,841.89 H 595.276 V 0 H 0 Z"
         id="path28" />
    </clipPath>
  </defs>
  <sodipodi:namedview
     id="base"
     pagecolor="#2f682e"
     bordercolor="#666666"
     borderopacity="1.0"
     inkscape:pageopacity="0"
     inkscape:pageshadow="2"
     inkscape:zoom="5.6"
     inkscape:cx="80.494416"
     inkscape:cy="52.447083"
     inkscape:document-units="mm"
     inkscape:current-layer="layer1"
     inkscape:document-rotation="0"
     showgrid="false"
     inkscape:window-width="1920"
     inkscape:window-height="1017"
     inkscape:window-x="-8"
     inkscape:window-y="-8"
     inkscape:window-maximized="1"
     fit-margin-top="0"
     fit-margin-left="0"
     fit-margin-right="0"
     fit-margin-bottom="0" />
  <metadata
     id="metadata1069">
    <rdf:RDF>
      <cc:Work
         rdf:about="">
        <dc:format>image/svg+xml</dc:format>
        <dc:type
           rdf:resource="http://purl.org/dc/dcmitype/StillImage" />
        <dc:title></dc:title>
      </cc:Work>
    </rdf:RDF>
  </metadata>
  <g
     inkscape:label="Calque 1"
     inkscape:groupmode="layer"
     id="layer1">
    <g
       id="g26"
       clip-path="url(#clipPath30)"
       transform="matrix(0.35278064,0,0,-0.35277777,-102.55503,174.56982)">
      <g
         id="g32"
         transform="translate(343.042,486.9624)">
        <path
           d="m 0,0 c 0.268,0.744 0.693,-0.046 1.125,0 0.316,0.034 1.353,0.682 1.127,0.75 0.818,-0.247 -0.026,-1.092 0.75,-1.5 0.088,-0.046 1.112,0.063 1.125,0 C 4.363,-1.9 3.211,-1.876 2.626,-2.627 2.387,-1.116 1.148,-0.602 0,0"
           style="fill:#a6c169;fill-opacity:1;fill-rule:evenodd;stroke:none"
           id="path34" />
      </g>
      <g
         id="g36"
         transform="translate(337.7725,456.7124)">
        <path
           d="M 0,0 C 0.268,0.744 0.693,-0.046 1.125,0 1.442,0.034 2.478,0.682 2.252,0.75 3.07,0.503 2.226,-0.342 3.001,-0.75 3.09,-0.796 4.114,-0.687 4.128,-0.75 4.364,-1.9 3.21,-1.877 2.627,-2.627 2.387,-1.116 1.148,-0.602 0,0"
           style="fill:#a6c169;fill-opacity:1;fill-rule:evenodd;stroke:none"
           id="path38" />
      </g>
      <g
         id="g40"
         transform="translate(338.9131,472.7031)">
        <path
           d="m 0,0 c -0.167,-1.717 -1.613,0.572 -1.876,-0.375 -1.15,-1.378 -1.424,0.103 -2.251,0 -0.21,-0.027 -0.442,-1.105 -1.126,-0.751 -1.417,0.276 -0.266,2.249 0.376,2.626 0.495,0.292 0.971,-0.458 1.501,-0.374 0.573,0.09 1.344,0.478 0.75,1.125 0.12,-0.663 -2.103,-0.67 -1.501,0.375 0.047,0.83 1.592,0.16 2.251,0.376 0.682,1.062 -1.146,0.573 -1.5,0.749 C -3.551,3.84 -3.101,5.096 -3.491,4.96 -3.714,4.883 -4.309,2.566 -4.502,2.251 -4.714,1.905 -5.783,1.891 -6.004,1.5 -6.4,0.794 -6.178,-0.471 -6.379,-1.126 c -0.38,-1.239 -2.322,-4.465 -2.447,-5.103 1.711,-0.008 1.88,4.29 3.198,4.728 -0.046,-0.016 1.126,-1.046 1.501,0 0.959,-0.197 1.314,-0.498 1.876,0.375 C -1.088,-1.653 0.9,-1.101 0,0"
           style="fill:#a6c169;fill-opacity:1;fill-rule:evenodd;stroke:none"
           id="path42" />
      </g>
      <g
         id="g44"
         transform="translate(349.4805,471.375)">
        <path
           d="M 0,0 C -0.011,-0.016 -0.018,-0.036 -0.026,-0.054 -0.018,-0.036 -0.011,-0.016 0,0 M 0.055,0.064 C 0.041,0.052 0.029,0.038 0.019,0.023 0.029,0.038 0.041,0.052 0.055,0.064 M 0.12,0.115 C 0.104,0.105 0.091,0.093 0.075,0.082 0.091,0.093 0.104,0.105 0.12,0.115 M 0.197,0.153 C 0.179,0.145 0.162,0.136 0.146,0.127 0.162,0.136 0.179,0.145 0.197,0.153 M 0.288,0.181 C 0.266,0.176 0.245,0.168 0.225,0.161 c 0.02,0.007 0.041,0.015 0.063,0.02 m 0.205,0.03 C 0.463,0.208 0.433,0.206 0.403,0.202 c 0.03,0.004 0.06,0.006 0.09,0.009 M 0.386,0.2 C 0.36,0.196 0.336,0.191 0.311,0.186 0.336,0.191 0.36,0.196 0.386,0.2 M 5.194,2.829 C 3.755,2.892 4.626,0.645 2.568,1.328 2.673,0.722 2.213,0.682 2.192,0.202 H 1.443 1.417 C 1.126,0.189 0.783,0.23 0.502,0.211 0.783,0.23 1.126,0.189 1.417,0.202 1.294,0.305 0.736,1.242 0.315,1.328 -0.063,1.405 -0.376,0.631 -0.81,0.578 c 0.084,0.009 -1.391,0.694 -1.502,0.375 -0.162,-0.47 1.376,-2.495 2.253,-1.126 0.003,0.034 0.012,0.066 0.022,0.094 -0.01,-0.028 -0.019,-0.06 -0.022,-0.094 0.712,0.111 1.031,-0.817 2.251,-0.751 1.33,0.073 -0.166,0.584 1.126,1.126 0.329,0.138 1.675,-0.26 1.876,0 0.007,0.008 -0.284,1.841 0,2.627"
           style="fill:#81ad58;fill-opacity:1;fill-rule:evenodd;stroke:none"
           id="path46" />
      </g>
      <g
         id="g48"
         transform="translate(344.167,471.2021)">
        <path
           d="m 0,0 c 1.465,-0.125 0.75,-2.22 0.375,-2.627 -0.223,-0.244 -1.529,0.091 -1.876,0 -0.663,-0.176 -1.045,-1.232 -2.627,-0.75 -0.121,0.037 -0.703,0.745 -0.749,0.75 -0.977,0.087 -1.396,-0.646 -1.878,-0.375 -0.959,0.54 -0.7,1.497 -0.75,1.876 0.637,0.259 0.539,-1.039 0.75,-1.125 0.494,-0.205 1.032,0.563 2.252,0.374 1.022,-0.157 1.072,-1.398 2.252,-0.374 -0.032,-0.029 0.548,0.786 0.375,0.75 0.307,0.064 0.846,-0.962 1.126,-0.75 C -0.021,-1.704 0.226,-1.036 0,0"
           style="fill:#a6c169;fill-opacity:1;fill-rule:evenodd;stroke:none"
           id="path50" />
      </g>
      <g
         id="g52"
         transform="translate(341.166,462.9458)">
        <path
           d="M 0,0 C 1.413,-1.547 -3.903,-2.764 -3.377,-0.375 -2.932,-0.711 0.175,-1.432 0,0"
           style="fill:#a6c169;fill-opacity:1;fill-rule:evenodd;stroke:none"
           id="path54" />
      </g>
      <g
         id="g56"
         transform="translate(354.9531,461.2798)">
        <path
           d="m 0,0 c -0.717,-0.781 -0.433,0.151 -0.749,0.375 -0.302,0.212 -1.246,-0.254 -1.502,0 -0.044,0.044 0.037,0.749 0,0.75 C -2.881,1.15 -3.419,1.049 -3.376,0 -5.05,-1.938 -6.567,0.468 -7.505,1.501 c 0.601,-1.776 1.091,-3.664 3.377,-3.752 0.424,0.451 1.072,0.679 0.752,1.876 0.898,-0.228 1.712,-0.54 3.002,-0.376 C 0.328,-0.771 0.42,-0.462 0,0"
           style="fill:#81ad58;fill-opacity:1;fill-rule:evenodd;stroke:none"
           id="path58" />
      </g>
      <g
         id="g60"
         transform="translate(353.1729,455.0659)">
        <path
           d="M 0,0 C -0.475,-0.461 -2.044,-1.359 -2.626,0 -2.691,0.152 -3.152,1.388 -3.002,1.501 -2.085,2.191 1.114,1.937 0.753,0 0.74,-0.06 0.058,0.056 0,0"
           style="fill:#a6c169;fill-opacity:1;fill-rule:evenodd;stroke:none"
           id="path62" />
      </g>
      <g
         id="g64"
         transform="translate(340.791,451.6885)">
        <path
           d="m 0,0 c -0.093,-1.713 -0.75,0.392 -1.127,0.375 -0.461,-0.021 -0.906,-0.707 -1.5,-0.75 -1.197,-0.086 -2.179,0.519 -2.253,2.251 1.304,-0.516 0.402,-1.203 1.126,-1.501 1.352,-0.556 2.209,1.302 3.002,1.126 C -0.462,1.437 -1.149,0.963 -1.127,1.126 -1.21,0.561 -0.203,0.06 0,0"
           style="fill:#a6c169;fill-opacity:1;fill-rule:evenodd;stroke:none"
           id="path66" />
      </g>
      <g
         id="g68"
         transform="translate(344.8008,437.7407)">
        <path
           d="m 0,0 c -0.092,-1.712 -0.749,0.392 -1.125,0.375 -0.462,-0.021 -0.908,-0.708 -1.5,-0.75 -1.198,-0.086 -2.178,0.519 -2.253,2.251 1.301,-0.516 0.403,-1.204 1.126,-1.501 1.353,-0.556 2.21,1.3 3.002,1.126 C -0.463,1.437 -1.15,0.963 -1.125,1.125 -1.208,0.561 -0.201,0.059 0,0"
           style="fill:#a6c169;fill-opacity:1;fill-rule:evenodd;stroke:none"
           id="path70" />
      </g>
      <g
         id="g72"
         transform="translate(340.0605,414.1299)">
        <path
           d="m 0,0 c -0.092,-1.713 -0.749,0.391 -1.125,0.374 -0.461,-0.02 -0.909,-0.706 -1.501,-0.75 -1.196,-0.086 -2.178,0.521 -2.251,2.251 1.3,-0.515 0.4,-1.203 1.125,-1.501 C -2.4,-0.181 -1.542,1.676 -0.751,1.5 -0.462,1.438 -1.149,0.962 -1.125,1.125 -1.208,0.561 -0.202,0.06 0,0"
           style="fill:#a6c169;fill-opacity:1;fill-rule:evenodd;stroke:none"
           id="path74" />
      </g>
      <g
         id="g76"
         transform="translate(340.791,430.7256)">
        <path
           d="m 0,0 c -0.093,-1.713 -0.75,0.391 -1.127,0.375 -0.461,-0.021 -0.906,-0.708 -1.5,-0.751 -1.197,-0.086 -2.179,0.52 -2.253,2.251 1.304,-0.515 0.402,-1.203 1.126,-1.5 1.352,-0.557 2.209,1.3 3.002,1.126 C -0.462,1.437 -1.149,0.962 -1.127,1.125 -1.21,0.56 -0.203,0.058 0,0"
           style="fill:#a6c169;fill-opacity:1;fill-rule:evenodd;stroke:none"
           id="path78" />
      </g>
      <g
         id="g80"
         transform="translate(340.791,453.5645)">
        <path
           d="M 0,0 C 0.893,0.625 3.422,-0.316 3.376,-1.876 2.082,-1.42 1.186,-0.564 0,0"
           style="fill:#b5c676;fill-opacity:1;fill-rule:evenodd;stroke:none"
           id="path82" />
      </g>
      <g
         id="g84"
         transform="translate(326.1836,450.5356)">
        <path
           d="M 0,0 C 1.618,-1.429 2.203,-0.927 3.35,-0.724 3.524,-2.457 0.717,-3.48 0,0"
           style="fill:#a6c169;fill-opacity:1;fill-rule:evenodd;stroke:none"
           id="path86" />
      </g>
      <g
         id="g88"
         transform="translate(350.5469,446.0596)">
        <path
           d="M 0,0 C -1.062,0.346 -0.663,1.225 -1.501,2.251 -3.251,1.406 -3.156,4.309 -4.127,3.002 -3.145,2.735 -3.768,0.86 -2.625,0.751 -2.545,0.124 -1.62,0.403 -1.125,0 c 0.123,-0.1 -0.095,-0.616 0,-0.751 0.028,-0.041 0.695,-0.327 0.749,-0.375 2.036,-1.829 2.549,0.51 3.755,2.627 C 1.718,1.437 1.683,-0.548 0,0"
           style="fill:#a6c169;fill-opacity:1;fill-rule:evenodd;stroke:none"
           id="path90" />
      </g>
      <g
         id="g92"
         transform="translate(337.7891,440.0552)">
        <path
           d="m 0,0 c -0.548,-0.703 -1.237,-1.266 -1.878,-1.875 -0.242,0.491 -0.381,1.855 0.376,2.25 0.747,0.392 1.611,-0.279 2.626,0 C 1.063,-0.064 0.439,0.059 0,0"
           style="fill:#a6c169;fill-opacity:1;fill-rule:evenodd;stroke:none"
           id="path94" />
      </g>
      <g
         id="g96"
         transform="translate(353.1729,440.0552)">
        <path
           d="m 0,0 c -1.184,0.184 -1.323,-0.676 -2.626,-0.375 -0.602,2.232 -0.642,3.288 -2.252,3.002 -1.301,-0.231 0.486,-1.081 0.751,-1.5 0.396,-0.63 0.528,-1.799 1.125,-1.878 0.176,-1.575 3.095,-0.408 2.254,-3.001 h 0.374 v 1.501 C -0.423,-1.327 -0.432,-0.443 0,0"
           style="fill:#a6c169;fill-opacity:1;fill-rule:evenodd;stroke:none"
           id="path98" />
      </g>
      <g
         id="g100"
         transform="translate(353.8896,433.6743)">
        <path
           d="m 0,0 c -1.095,-0.486 -0.748,-1.285 -2.008,-1.734 -1.712,1.552 -2.316,2.417 -3.515,1.307 -0.97,-0.898 0.993,-0.647 1.441,-0.857 0.673,-0.316 1.418,-1.226 1.962,-0.971 1,-1.23 2.824,1.329 3.518,-1.307 l 0.315,0.203 -0.812,1.262 C 0.36,-1.345 -0.125,-0.606 0,0"
           style="fill:#a6c169;fill-opacity:1;fill-rule:evenodd;stroke:none"
           id="path102" />
      </g>
      <g
         id="g104"
         transform="translate(349.0459,436.6787)">
        <path
           d="M 0,0 C 2.447,0.72 1.566,-2.665 -0.375,-1.877 -0.06,-1.441 0.121,-0.871 0,0"
           style="fill:#a6c169;fill-opacity:1;fill-rule:evenodd;stroke:none"
           id="path106" />
      </g>
      <g
         id="g108"
         transform="translate(353.1729,419.417)">
        <path
           d="m 0,0 h -0.374 c -0.166,-0.334 -0.33,-0.672 -0.75,-0.751 v -0.751 c -1.264,-0.862 -2.481,-1.771 -3.378,-3.002 h -0.376 c -1.061,-0.563 -1.734,-1.517 -3.377,-1.501 0.517,-0.483 0.372,-1.63 0.376,-2.626 0.291,0.084 0.738,0.01 0.75,0.375 -0.692,2.231 1.427,2.85 1.878,1.125 0.563,-1.131 1.12,0.836 1.5,1.126 1.868,0.882 4.413,1.091 4.127,4.128 C 1.106,-1.18 0.634,-0.361 0,0"
           style="fill:#81ad58;fill-opacity:1;fill-rule:evenodd;stroke:none"
           id="path110" />
      </g>
      <g
         id="g112"
         transform="translate(343.417,492.9663)">
        <path
           d="m 0,0 c -1.393,-0.108 -0.156,-2.846 -1.501,-3.002 -1.569,0.435 0.134,-0.531 -0.375,-1.5 -0.1,-0.192 -1.095,-0.285 -1.125,-0.376 -0.368,-1.072 0.084,-2.578 -0.377,-3.377 -0.083,-0.148 -0.973,0.104 -1.126,0 -0.632,-0.433 -0.4,-2.468 -0.986,-2.592 0.913,-0.445 0.787,1.337 1.363,1.841 0.439,0.385 1.231,0.397 1.501,0.751 0.176,0.232 -0.127,0.858 0,1.126 0.052,0.11 0.732,0.304 0.75,0.375 0.134,0.538 -0.679,0.936 -0.75,0.75 0.396,1.016 2.345,1.409 1.125,2.628 1.749,-0.123 0.573,2.679 1.876,3.001 C 0.146,-0.354 -0.068,-0.318 0,0"
           style="fill:#a6c169;fill-opacity:1;fill-rule:evenodd;stroke:none"
           id="path114" />
      </g>
      <g
         id="g116"
         transform="translate(343.417,483.96)">
        <path
           d="M 0,0 C -0.063,0.814 1.33,0.17 1.877,0.375 2.083,-1.159 0.256,-0.893 0,0"
           style="fill:#a6c169;fill-opacity:1;fill-rule:evenodd;stroke:none"
           id="path118" />
      </g>
      <g
         id="g120"
         transform="translate(338.9131,478.7065)">
        <path
           d="m 0,0 c -0.692,-0.437 -2.01,0.128 -2.626,-1.125 -1.415,-0.296 -0.382,1.328 0.75,1.876 0.106,0.051 0.701,-0.089 0.752,0 0.2,0.358 -0.038,4.149 0.375,1.501 C -0.627,1.462 -1.115,0.132 0,0"
           style="fill:#a6c169;fill-opacity:1;fill-rule:evenodd;stroke:none"
           id="path122" />
      </g>
      <g
         id="g124"
         transform="translate(343.4512,477.2388)">
        <path
           d="m 0,0 c -0.953,-0.989 -1.519,0.071 -1.875,0.75 -2.211,0.501 0.102,3.24 -1.5,4.128 0.075,-1.082 -0.999,-4.22 1.125,-4.503 0.362,-0.888 0.658,-1.843 2.25,-1.5 0.071,0.303 0.377,0.374 0.376,0.75 C 0.057,-0.445 0.021,-0.229 0,0"
           style="fill:#a6c169;fill-opacity:1;fill-rule:evenodd;stroke:none"
           id="path126" />
      </g>
      <g
         id="g128"
         transform="translate(338.7041,454.5352)">
        <path
           d="m 0,0 c -0.955,-0.988 -1.52,0.071 -1.877,0.75 -2.21,0.501 0.102,3.24 -1.501,4.128 0.077,-1.081 -0.997,-4.22 1.125,-4.503 0.363,-0.888 0.659,-1.844 2.253,-1.5 0.07,0.303 0.377,0.374 0.375,0.75 C 0.055,-0.444 0.021,-0.229 0,0"
           style="fill:#a6c169;fill-opacity:1;fill-rule:evenodd;stroke:none"
           id="path130" />
      </g>
      <g
         id="g132"
         transform="translate(353.5488,477.2056)">
        <path
           d="m 0,0 c -1.804,0.753 0.286,3.718 -2.251,4.128 -0.24,0.335 -0.555,0.349 -0.751,0.75 -0.644,1.319 0.858,1.271 0.751,2.627 -0.101,1.271 -1.656,0.927 -1.127,2.627 0.12,0.871 -0.059,1.441 -0.375,1.877 -0.007,1.117 -1.769,0.481 -2.251,1.125 -1.032,0.61 -0.856,2.588 -1.877,3.753 -0.207,0.238 -1.038,0.005 -0.75,0.751 h -0.751 c 0.323,-1.198 -0.59,-1.161 -0.75,-1.877 -0.068,-0.319 0.147,-0.354 0.375,-0.375 0.335,0.166 0.672,0.33 0.75,0.75 0.477,-0.807 0.817,-0.968 0.752,-1.501 -0.043,-0.352 -0.893,-0.761 -0.752,-1.126 0.346,-0.877 1.68,0.066 2.253,-1.125 0.202,-0.422 -0.455,-1.926 0.374,-1.877 0.988,-0.111 0.296,1.457 1.502,1.127 0.439,-0.062 0.317,-0.685 0.375,-1.127 -0.786,-0.749 -0.989,-1.626 0.376,-1.875 0.45,-0.494 0.146,-0.59 0,-1.127 C -5.305,6.769 -7.053,8.084 -5.254,6.004 -3.035,5.655 -4.866,3.588 -2.625,3.378 -1.529,1.709 -4.099,3.92 -4.127,2.252 -5.548,1.934 -5.111,3.278 -6.004,3.002 -6.629,2.809 -5.938,1.881 -5.254,1.126 -5.085,0.818 -4.928,0.42 -4.503,0.376 -3.516,0.271 -2.593,1.647 -1.5,1.126 -1.146,0.957 -1.234,0.362 -0.75,-0.375 -0.762,-0.74 -1.209,-0.666 -1.5,-0.751 H -2.251 C -2.183,-1.569 -2.559,-1.944 -3.378,-1.876 -3.73,-1.08 -5.204,0.527 -5.254,-1.5 h -1.5 c -1.383,0.543 0.435,2.615 -0.751,3.752 0.009,0.93 0.601,2.134 0,2.626 C -8.056,5.331 -9.38,3.125 -10.132,4.503 -9.884,3.209 -8.743,3.515 -8.631,2.627 -8.533,1.852 -9.871,1.654 -9.382,0.376 V 0 c 0.023,-0.229 0.056,-0.444 0.375,-0.375 0.002,-0.376 -0.303,-0.447 -0.375,-0.75 0.491,-1.526 -0.774,-1.886 -1.501,-1.126 0.019,-3.024 2.752,-0.425 4.503,-0.751 -0.267,-0.608 1.771,-0.608 1.502,0 h 0.375 c 0.658,0.104 1.873,-1.056 2.252,0 0.406,0.094 0.255,0.746 0.751,0.751 H 0 c -0.915,-1.347 -0.031,-1.645 -1.5,-2.251 2.058,-0.684 1.187,1.563 2.626,1.5 C -0.343,-2.321 1.612,-0.536 0,0"
           style="fill:#81ad58;fill-opacity:1;fill-rule:evenodd;stroke:none"
           id="path134" />
      </g>
      <g
         id="g136"
         transform="translate(355.0508,471.5767)">
        <path
           d="m 0,0 c -1.339,-1.463 1.446,-2.772 -0.752,-3.377 -0.492,-0.481 -1.382,-0.481 -1.874,0 -1.565,0.187 0.1,-2.853 -2.254,-1.876 -0.07,0.304 -0.376,0.374 -0.375,0.751 0.447,0.862 -2.314,0.646 -2.251,0.75 -0.15,-0.247 0.889,-2.099 1.877,-1.876 0.709,-0.042 0.26,-1.241 1.125,-1.126 -0.17,-0.613 2.045,-0.613 1.878,0 0.082,0.291 0.008,0.74 0.374,0.75 0.228,0.649 1.778,-0.029 1.876,0.751 H 1.125 C 1.354,-5.232 1.57,-5.197 1.501,-4.878 2.458,-2.592 0.341,-2.015 0,0"
           style="fill:#81ad58;fill-opacity:1;fill-rule:evenodd;stroke:none"
           id="path138" />
      </g>
      <g
         id="g140"
         transform="translate(357.9678,433.5625)">
        <path
           d="m 0,0 c -1.34,-1.463 1.446,-2.772 -0.752,-3.378 -0.492,-0.481 -1.383,-0.481 -1.876,0 -1.561,0.187 0.102,-2.853 -2.25,-1.876 -0.072,0.305 -0.378,0.374 -0.376,0.751 0.447,0.864 -2.316,0.645 -2.252,0.751 -0.151,-0.247 0.889,-2.1 1.876,-1.877 0.71,-0.042 0.262,-1.241 1.126,-1.125 -0.169,-0.614 2.045,-0.614 1.876,0 0.084,0.291 0.011,0.738 0.375,0.75 0.229,0.647 1.781,-0.03 1.878,0.75 h 1.501 c 0.228,0.022 0.442,0.055 0.375,0.376 C 2.458,-2.593 0.343,-2.016 0,0"
           style="fill:#81ad58;fill-opacity:1;fill-rule:evenodd;stroke:none"
           id="path142" />
      </g>
      <g
         id="g144"
         transform="translate(333.2051,466.6113)">
        <path
           d="M 0,0 C 0.807,-0.163 1.069,-1.075 1.876,-0.375 2.286,-0.02 2.292,0.709 3.002,0 3.945,-0.944 3.817,-0.331 5.629,0 5.041,-0.579 4.365,-1.775 3.378,-1.501 3.197,-1.452 2.764,-0.383 2.627,-0.375 2.428,-0.364 0.019,-2.462 0,0"
           style="fill:#a6c169;fill-opacity:1;fill-rule:evenodd;stroke:none"
           id="path146" />
      </g>
      <g
         id="g148"
         transform="translate(335.124,464.5293)">
        <path
           d="M 0,0 C 0.807,-0.162 1.069,-1.074 1.876,-0.375 2.286,-0.019 2.293,0.71 3.002,0 3.944,-0.943 3.817,-0.331 5.63,0 5.042,-0.578 4.365,-1.774 3.378,-1.501 3.198,-1.451 2.764,-0.382 2.626,-0.375 2.429,-0.364 0.02,-2.462 0,0"
           style="fill:#a6c169;fill-opacity:1;fill-rule:evenodd;stroke:none"
           id="path150" />
      </g>
      <g
         id="g152"
         transform="translate(335.4834,422.0669)">
        <path
           d="M 0,0 C 0.809,-0.162 1.069,-1.075 1.877,-0.375 2.286,-0.02 2.294,0.709 3.002,0 3.945,-0.943 3.818,-0.331 5.63,0 5.042,-0.578 4.365,-1.775 3.378,-1.501 3.198,-1.452 2.764,-0.383 2.627,-0.375 2.429,-0.365 0.021,-2.462 0,0"
           style="fill:#a6c169;fill-opacity:1;fill-rule:evenodd;stroke:none"
           id="path154" />
      </g>
      <g
         id="g156"
         transform="translate(338.1641,458.4434)">
        <path
           d="M 0,0 C -1.863,-0.486 -0.531,2.221 -1.502,2.626 -2.229,1.626 -2.221,-1.148 0,-0.375 0.297,0.578 2.299,-0.173 2.252,1.125 1.107,1.144 0.341,0.784 0,0"
           style="fill:#b5c676;fill-opacity:1;fill-rule:evenodd;stroke:none"
           id="path158" />
      </g>
      <g
         id="g160"
         transform="translate(337.252,426.8091)">
        <path
           d="M 0,0 C -1.862,-0.485 -0.529,2.222 -1.502,2.628 -2.228,1.627 -2.219,-1.147 0,-0.375 0.298,0.579 2.299,-0.171 2.251,1.125 1.107,1.145 0.341,0.785 0,0"
           style="fill:#b5c676;fill-opacity:1;fill-rule:evenodd;stroke:none"
           id="path162" />
      </g>
      <g
         id="g164"
         transform="translate(339.2031,444.1787)">
        <path
           d="M 0,0 C -1.862,-0.486 -0.53,2.222 -1.501,2.627 -2.227,1.626 -2.219,-1.147 0,-0.375 0.298,0.579 2.299,-0.172 2.252,1.125 1.108,1.144 0.341,0.786 0,0"
           style="fill:#b5c676;fill-opacity:1;fill-rule:evenodd;stroke:none"
           id="path166" />
      </g>
      <g
         id="g168"
         transform="translate(332.1592,461.4448)">
        <path
           d="m 0,0 c 0.293,0.188 -0.245,1.605 0.75,1.125 0.188,-0.979 2.775,-1.896 2.628,0 C 2.363,1.148 2.436,0.45 1.501,0.751 1.018,0.907 0.919,3.08 0.375,1.876 -0.888,1.956 -1.336,0.178 -2.252,0.751 -2.82,1.107 -1.976,2.563 -3.001,3.002 -3.032,1.47 -2.717,0.286 -1.5,0 c -0.047,-1.297 0.732,-1.769 1.125,-2.627 0.162,-0.588 1.18,-0.32 0.75,-1.501 -0.862,-1.013 -3.736,-1.469 -4.625,-2.455 1.032,0.77 2.671,-0.242 3.5,0.204 0.571,0.308 -0.441,1.086 0.75,1.126 0.733,0.024 0.027,-0.872 0.375,-1.126 0.82,-0.599 1.826,0.155 2.252,1.126 C 2.065,-5.189 1.243,-5.387 1.126,-4.878 1.54,-3.088 0.646,-2.605 0,-1.876 0.229,-1.855 0.444,-1.819 0.375,-1.501 0.224,-0.652 -1.823,-1.699 -1.125,0 -1.185,0.827 -0.097,-0.062 0,0 m -6.024,-10.039 c 0.995,0.006 2.209,-0.208 2.251,0.751 -2.28,0.503 -2.873,-0.07 -2.251,-1.501 z M -2.252,3.753 C -1.256,3.759 -0.042,3.544 0,4.504 -2.279,5.007 -2.874,4.433 -2.252,3.002 Z"
           style="fill:#a6c169;fill-opacity:1;fill-rule:evenodd;stroke:none"
           id="path170" />
      </g>
      <g
         id="g172"
         transform="translate(348.2949,453.9395)">
        <path
           d="m 0,0 c -0.717,0.534 -1.343,1.16 -1.875,1.876 -0.005,0.497 -0.659,0.344 -0.752,0.751 1.198,1.886 -1.307,5.477 1.501,6.004 h 0.376 c 0.118,0.508 0.533,0.717 0.377,1.501 0.51,0.063 0.45,0.966 0,1.126 -0.304,0.107 -0.656,-0.377 -1.127,-0.375 -0.172,0 -0.206,0.503 -0.751,0.375 -0.378,-0.088 -0.812,-0.992 -1.502,-0.75 -0.944,0.331 0.486,1.698 -1.125,1.501 0.04,-0.961 0.213,-1.789 0.75,-2.252 C -4.105,9.529 -4.072,9.313 -3.753,9.382 -3.873,8.502 -4.346,7.973 -4.128,6.756 -4.643,6.145 -3.667,4.254 -3.753,3.753 -3.758,3.714 -4.461,3.466 -4.503,3.377 -5.21,1.882 -3.271,1.653 -2.251,1.126 c 0.458,-1.71 -1.029,-1.472 -0.75,-3.001 1.164,-0.04 1.07,1.18 2.628,0.75 C 0.549,-2.621 2.777,0.874 0,0"
           style="fill:#a6c169;fill-opacity:1;fill-rule:evenodd;stroke:none"
           id="path174" />
      </g>
      <g
         id="g176"
         transform="translate(326.416,453.4502)">
        <path
           d="M 0,0 C 1.817,1.416 1.035,1.981 1.125,0 1.19,-1.438 1.768,-0.789 0,-0.75 Z"
           style="fill:#a6c169;fill-opacity:1;fill-rule:evenodd;stroke:none"
           id="path178" />
      </g>
      <g
         id="g180"
         transform="translate(331.7842,453.1895)">
        <path
           d="m 0,0 c -0.263,0.926 -0.843,-0.12 -1.501,0 -0.063,0.012 0.063,0.703 0,0.75 C -1.952,1.093 -4.205,0.936 -3.378,0 -1.674,0.446 -1.13,-1.394 0,-0.375 0.546,-2.017 2.36,-0.518 2.627,0.375 1.568,0.337 1.032,-1.039 0,0"
           style="fill:#a6c169;fill-opacity:1;fill-rule:evenodd;stroke:none"
           id="path182" />
      </g>
      <g
         id="g184"
         transform="translate(340.0391,448.311)">
        <path
           d="M 0,0 C -0.88,0.12 -1.408,0.593 -2.627,0.375 -2.02,1.104 -0.032,1.547 0,0"
           style="fill:#a6c169;fill-opacity:1;fill-rule:evenodd;stroke:none"
           id="path186" />
      </g>
      <g
         id="g188"
         transform="translate(345.668,444.5586)">
        <path
           d="M 0,0 V 0.375 C 0.519,0.515 0.85,7.844 -0.374,6.004 -1.354,6.11 -1.988,5.868 -1.876,4.878 -2.171,3.59 -1.525,2.944 -0.75,3.752 V -0.375 C -1.896,-0.647 -2.118,0.008 -3.002,0 c -0.248,-1.581 2.469,-1.322 0.751,-2.252 1.866,0.313 1.485,0.934 2.627,-0.375 C 0.201,-0.96 2.841,0.91 0,0"
           style="fill:#a6c169;fill-opacity:1;fill-rule:evenodd;stroke:none"
           id="path190" />
      </g>
      <g
         id="g192"
         transform="translate(347.1602,429.1846)">
        <path
           d="M 0,0 V 0.349 C 0.706,0.479 1.157,7.292 -0.512,5.581 -1.85,5.68 -2.713,5.454 -2.559,4.535 -2.961,3.337 -2.08,2.736 -1.024,3.489 V -0.348 C -2.587,-0.602 -2.889,0.008 -4.094,0 c -0.34,-1.47 3.366,-1.229 1.025,-2.093 2.545,0.291 2.024,0.867 3.581,-0.349 C 0.272,-0.892 3.872,0.845 0,0"
           style="fill:#a6c169;fill-opacity:1;fill-rule:evenodd;stroke:none"
           id="path194" />
      </g>
      <g
         id="g196"
         transform="translate(330.2168,444.0957)">
        <path
           d="M 0,0 C -1.332,0.043 -1.068,2.456 -1.059,3.84 -0.696,2.828 -0.206,1.171 0,0"
           style="fill:#a6c169;fill-opacity:1;fill-rule:evenodd;stroke:none"
           id="path198" />
      </g>
      <g
         id="g200"
         transform="translate(329.0303,437.5791)">
        <path
           d="M 0,0 C -0.935,0.951 -0.294,3.373 0.667,4.37 0.232,3.386 0.659,0.99 0,0"
           style="fill:#a6c169;fill-opacity:1;fill-rule:evenodd;stroke:none"
           id="path202" />
      </g>
      <g
         id="g204"
         transform="translate(328.5918,432.3208)">
        <path
           d="M 0,0 C -0.733,0.511 -0.549,2.284 0,3.122 -0.193,2.376 0.344,0.786 0,0"
           style="fill:#a6c169;fill-opacity:1;fill-rule:evenodd;stroke:none"
           id="path206" />
      </g>
      <g
         id="g208"
         transform="translate(333.6602,445.6846)">
        <path
           d="M 0,0 C -1.292,0.87 2.673,1.374 3.002,0.375 1.882,-1.017 0.717,0.702 0,0"
           style="fill:#a6c169;fill-opacity:1;fill-rule:evenodd;stroke:none"
           id="path210" />
      </g>
      <g
         id="g212"
         transform="translate(333.2842,448.4897)">
        <path
           d="M 0,0 C -1.862,-0.486 -0.531,2.222 -1.501,2.626 -2.227,1.627 -2.22,-1.148 0,-0.375 0.298,0.578 2.3,-0.172 2.253,1.126 1.108,1.145 0.342,0.785 0,0"
           style="fill:#b5c676;fill-opacity:1;fill-rule:evenodd;stroke:none"
           id="path214" />
      </g>
      <g
         id="g216"
         transform="translate(328.7813,435.731)">
        <path
           d="M 0,0 C -1.293,0.871 2.673,1.374 3.002,0.375 1.883,-1.017 0.717,0.703 0,0"
           style="fill:#a6c169;fill-opacity:1;fill-rule:evenodd;stroke:none"
           id="path218" />
      </g>
      <g
         id="g220"
         transform="translate(341.166,445.3081)">
        <path
           d="M 0,0 C -0.177,1.702 1.755,1.024 2.626,0.751 2.296,-0.543 1.119,0.845 0,0"
           style="fill:#b5c676;fill-opacity:1;fill-rule:evenodd;stroke:none"
           id="path222" />
      </g>
      <g
         id="g224"
         transform="translate(341.166,443.4321)">
        <path
           d="m 0,0 c -0.342,-0.785 -1.106,-1.143 -2.253,-1.126 -1.041,0.057 -1.21,1.799 -2.251,0.751 -1.432,-0.181 -2.395,0.107 -3.002,0.75 0.039,0.131 -0.35,0.755 -0.375,0.751 -1.015,-0.154 -2.373,-1.571 -3.752,-1.501 1.586,-1.918 2.267,1.375 3.752,0.375 0.634,-0.446 2.084,-1.815 3.377,-1.126 0.825,0.832 1.247,-0.657 2.251,-0.749 C -0.979,-2.002 0.932,-0.836 0,0"
           style="fill:#a6c169;fill-opacity:1;fill-rule:evenodd;stroke:none"
           id="path226" />
      </g>
      <g
         id="g228"
         transform="translate(343.9922,435.5923)">
        <path
           d="m 0,0 c -0.342,-0.784 -1.108,-1.144 -2.253,-1.125 -1.04,0.056 -1.209,1.796 -2.251,0.75 -1.433,-0.182 -2.394,0.106 -3.002,0.751 0.039,0.13 -0.35,0.753 -0.375,0.75 -1.015,-0.154 -2.374,-1.571 -3.752,-1.501 1.586,-1.919 2.266,1.374 3.752,0.375 0.634,-0.447 2.084,-1.815 3.377,-1.125 0.826,0.831 1.248,-0.658 2.251,-0.75 C -0.979,-2.002 0.934,-0.836 0,0"
           style="fill:#a6c169;fill-opacity:1;fill-rule:evenodd;stroke:none"
           id="path230" />
      </g>
      <g
         id="g232"
         transform="translate(335.1621,439.3042)">
        <path
           d="m 0,0 c 0.528,-0.874 -1.594,-0.229 -2.253,-0.75 -0.276,-0.219 0.24,-0.797 0.376,-0.75 -1.413,-0.491 -1.708,-0.659 -3.002,0 0.032,0.513 0.721,0.22 1.126,0.375 0.774,0.295 1.186,1.518 1.125,1.501 C -1.743,0.624 -1.296,-0.494 0,0"
           style="fill:#a6c169;fill-opacity:1;fill-rule:evenodd;stroke:none"
           id="path234" />
      </g>
      <g
         id="g236"
         transform="translate(335.8906,424.2637)">
        <path
           d="m 0,0 c 0.53,-0.875 -1.594,-0.23 -2.251,-0.752 -0.277,-0.218 0.239,-0.797 0.374,-0.749 -1.412,-0.492 -1.706,-0.659 -3.002,0 0.033,0.512 0.722,0.22 1.126,0.375 0.774,0.296 1.186,1.517 1.126,1.5 C -1.743,0.622 -1.295,-0.495 0,0"
           style="fill:#a6c169;fill-opacity:1;fill-rule:evenodd;stroke:none"
           id="path238" />
      </g>
      <g
         id="g240"
         transform="translate(360.3037,434.8013)">
        <path
           d="m 0,0 c 0.133,1.369 2.224,0.778 1.501,3.003 -0.317,0.558 -1.208,0.542 -1.876,0.75 0.061,0.436 -0.084,0.668 -0.376,0.75 -0.071,0.304 -0.377,0.375 -0.375,0.751 0.949,0.302 0.957,1.545 1.501,2.251 1.198,-0.529 0.949,2.246 0.375,2.252 -0.07,0.305 -0.378,0.374 -0.375,0.75 0.314,1.941 -0.263,2.99 -1.501,3.378 -0.993,0.507 -1.381,2.979 -0.375,3.378 v 1.125 c 1.701,1.186 1.147,3.99 -1.125,4.128 -0.275,0.35 -0.684,0.568 -1.126,0.751 v 0.375 c 1.224,1.111 1.064,2.622 0.75,4.503 v 2.251 c -0.052,0.7 -0.247,1.255 -0.75,1.501 0.069,-0.319 -0.147,-0.354 -0.376,-0.375 0.071,-0.304 0.377,-0.374 0.376,-0.751 0.377,-1.252 -0.521,-1.23 -1.501,-1.125 -1.149,-0.272 -1.104,0.647 -2.252,0.375 1.274,-1.228 2.572,-2.431 4.128,-3.377 -0.071,-0.304 -0.376,-0.374 -0.375,-0.75 h -0.752 c 0.42,-0.462 0.327,-0.771 -0.375,-0.751 v -0.376 c -0.035,-0.589 0.051,-1.301 -0.75,-1.125 h -1.876 c -0.856,-0.85 0.541,-1.364 1.5,-1.501 0.611,-1.2 2.203,-0.595 3.003,0 0.68,-0.357 1.738,-0.923 0.75,-1.876 -1.218,-0.219 -1.746,0.255 -2.627,0.375 0.073,-1.928 2.387,-1.618 2.627,-3.377 -0.925,-0.051 -1.808,-0.057 -2.252,0.375 -0.538,-2.039 1.929,-1.075 1.878,-2.627 -0.32,0.069 -0.355,-0.146 -0.376,-0.375 0.04,0.06 -2.565,0.805 -2.627,0.75 -0.744,-0.683 0.685,-2.674 2.627,-1.876 0.879,-0.239 2.017,-0.006 1.876,-1.126 -0.178,-1.416 -1.081,0.124 -1.5,-1.501 -0.781,-0.815 -1.213,0.046 -1.878,0.375 0.012,0.547 -0.271,1.099 -0.749,1.126 -0.272,0.015 -0.242,-2.656 0.749,-2.627 V 9.382 c 0.5,-0.535 2.127,-0.535 2.628,0 0.342,0.651 1.314,0.97 1.876,0.375 C -0.106,8.739 -1.373,8.879 -1.501,7.881 -1.439,7.444 -1.583,7.214 -1.876,7.13 -3.031,6.852 -2.598,8.161 -3.752,7.881 -3.93,6.703 -2.743,6.89 -2.626,6.005 V 5.628 c 0.959,-0.04 0.742,-1.255 0.75,-2.25 -0.436,-0.555 -0.436,-0.945 0,-1.501 C -2.311,1.313 -3.194,0.296 -1.876,0 -2.141,-2.083 0.075,-0.26 0.375,-1.125 1.279,-1.279 1.191,-0.439 2.252,-0.75 1.872,-0.129 0.658,-0.342 0,0 m -6.755,17.263 c -0.282,0.343 -0.3,1.441 -1.124,1.125 0.082,-1.668 0.569,-2.931 2.25,-3.002 0.391,1.174 -0.698,1.356 -1.126,1.877"
           style="fill:#81ad58;fill-opacity:1;fill-rule:evenodd;stroke:none"
           id="path242" />
      </g>
      <g
         id="g244"
         transform="translate(331.4092,430.2979)">
        <path
           d="M 0,0 C 0.408,1.535 -0.402,1.851 -1.126,2.252 -0.121,2.499 0.3,3.328 1.125,3.754 0.792,2.835 0.25,2.126 0.375,0.751 0.291,0.46 0.364,0.011 0,0"
           style="fill:#a6c169;fill-opacity:1;fill-rule:evenodd;stroke:none"
           id="path246" />
      </g>
      <g
         id="g248"
         transform="translate(331.4092,429.1733)">
        <path
           d="M 0,0 C -0.527,0.701 -2.234,-0.028 -2.627,1.125 -2.83,1.724 -2.932,3.005 -1.502,3.002 -3.188,2.126 -1.285,1.202 0,1.125 Z"
           style="fill:#a6c169;fill-opacity:1;fill-rule:evenodd;stroke:none"
           id="path250" />
      </g>
      <g
         id="g252"
         transform="translate(332.7764,425.5269)">
        <path
           d="m 0,0 c -0.527,0.701 -2.234,-0.028 -2.626,1.125 -0.204,0.6 -0.306,1.88 1.125,1.877 C -3.188,2.125 -1.285,1.202 0,1.125 Z"
           style="fill:#a6c169;fill-opacity:1;fill-rule:evenodd;stroke:none"
           id="path254" />
      </g>
      <g
         id="g256"
         transform="translate(349.4219,424.6694)">
        <path
           d="M 0,0 C 0.061,0.437 -0.084,0.668 -0.376,0.751 -2.259,0.508 -5.12,1.243 -6.38,0.375 -5.848,0.409 -5.316,0.438 -5.255,0 -4.189,-1.926 -6.683,-1.654 -6.38,0.375 h -0.376 v -1.5 c 0.766,-0.235 0.106,-1.896 1.501,-1.501 1.026,-0.035 0.757,0.625 1.501,0 h 1.127 c 0.318,-0.069 0.354,0.147 0.374,0.376 -2.042,-0.404 -0.854,1.883 0,1.875 H -1.5 c 1.23,-0.665 -0.438,-1.52 -0.753,-1.875 0.857,-0.105 1.411,0.09 1.502,0.749 C -0.746,-0.755 0.272,-1.022 0,0"
           style="fill:#a6c169;fill-opacity:1;fill-rule:evenodd;stroke:none"
           id="path258" />
      </g>
      <g
         id="g260"
         transform="translate(361.0537,419.791)">
        <path
           d="m 0,0 c 0.033,0.533 0.063,1.063 -0.375,1.126 -0.232,1.356 -0.14,3.082 -1.876,3.752 -1.4,0.252 -2.202,-1.039 -2.251,0.751 -0.543,-0.458 -0.569,-1.432 -1.127,-1.876 1.244,-0.077 2.46,-0.9 3.003,0.376 1.573,0.137 0.268,-1.224 0.375,-1.877 0.005,-0.746 1.025,-0.476 0.75,-1.501 C -2.246,0.747 -1.978,-0.272 -3.002,0 -3.606,0.521 -4.478,0.775 -4.878,1.501 -5.286,1.595 -5.133,2.248 -5.629,2.252 -6.688,2.31 -6.569,1.192 -7.128,0.751 c 1.176,0.178 0.99,-1.01 1.874,-1.125 0.235,-0.893 2.31,0.059 2.628,-0.751 C -1.87,-2.099 0.265,-1.289 0,0"
           style="fill:#81ad58;fill-opacity:1;fill-rule:evenodd;stroke:none"
           id="path262" />
      </g>
      <g
         id="g264"
         transform="translate(334.7861,420.167)">
        <path
           d="m 0,0 v 0.375 c -1.462,0.038 -3.682,-3.078 -0.75,-3.002 0.116,-0.509 0.94,-0.311 1.501,-0.375 v 0.375 C 0.069,-2.184 0.456,-0.67 0,0"
           style="fill:#a6c169;fill-opacity:1;fill-rule:evenodd;stroke:none"
           id="path266" />
      </g>
      <g
         id="g268"
         transform="translate(343.417,409.2842)">
        <path
           d="M 0,0 V 3.377 3.753 H 0.75 V 2.627 C -0.324,2.576 1.075,0.051 0,0"
           style="fill:#a6c169;fill-opacity:1;fill-rule:evenodd;stroke:none"
           id="path270" />
      </g>
      <g
         id="g272"
         transform="translate(342.291,409.6592)">
        <path
           d="m 0,0 c -0.009,-0.055 -0.69,0.051 -0.75,0 -0.043,-0.037 0.591,-0.823 0.375,-1.125 -0.354,-0.494 -1.838,-0.01 -1.5,-1.127 h -0.377 c -0.142,1.645 1.073,1.93 1.127,3.379 1.018,-0.27 -0.27,1.769 0.75,1.5 1.033,0.633 0,-1.502 0,-1.5 C -0.374,0.801 0.098,0.548 0,0 M -1.125,3.378 C -1.02,2.771 -1.48,2.732 -1.5,2.252 -2.203,1.204 -2.211,-0.539 -3.001,-1.5 c 0.177,-1.179 -1.01,-0.992 -1.126,-1.877 h 0.749 C -2.678,-2.325 0.73,-3.98 0,-1.5 0.983,-0.607 -0.537,2.789 1.126,3.002 v 0.376 z"
           style="fill:#a6c169;fill-opacity:1;fill-rule:evenodd;stroke:none"
           id="path274" />
      </g>
      <g
         id="g276"
         transform="translate(347.1689,408.9102)">
        <path
           d="M 0,0 C -0.74,0.261 0.094,2.093 -0.749,2.251 H -1.125 C -1.137,1.886 -1.584,1.96 -1.875,1.876 V 1.501 c -0.991,-0.115 -0.969,0.783 -1.127,1.5 -1.074,-0.051 0.325,-2.576 -0.75,-2.627 0.031,-0.158 -0.809,-2.005 0,-2.627 2.216,0.275 3.019,-0.1 4.505,1.127 0.3,-0.261 1.026,-0.585 1.124,0 C 4.466,-0.974 2.355,0.952 0,0"
           style="fill:#81ad58;fill-opacity:1;fill-rule:evenodd;stroke:none"
           id="path278" />
      </g>
      <g
         id="g280"
         transform="translate(292.1948,423.1631)">
        <path
           d="m 0,0 v -0.323 c 0,-1.558 0.497,-2.347 1.529,-2.347 0.941,0 1.411,0.913 1.411,1.863 0,1.344 -0.496,1.935 -1.333,2.275 L 0.588,1.953 c -1.359,0.716 -1.947,1.684 -1.947,3.51 0,2.329 1.15,3.62 2.901,3.62 2.391,0 2.639,-2.042 2.639,-3.369 V 5.428 H 2.691 V 5.696 C 2.691,6.861 2.312,7.542 1.384,7.542 0.745,7.542 0.13,7.058 0.13,5.696 0.13,4.604 0.536,4.048 1.529,3.528 L 2.535,3.027 c 1.32,-0.645 1.895,-1.63 1.895,-3.385 0,-2.724 -1.202,-3.853 -3.084,-3.853 -2.313,0 -2.836,2.114 -2.836,3.906 V 0 Z"
           style="fill:#ffffff;fill-opacity:1;fill-rule:nonzero;stroke:none"
           id="path282" />
      </g>
      <g
         id="g284"
         transform="translate(300.3105,432.6753)">
        <path
           d="M 0,0 H 1.568 L 0.184,-2.58 h -0.968 z m 0.901,-7.578 v 0.519 c 0,1.219 -0.287,2.151 -1.084,2.151 -0.901,0 -1.175,-1.218 -1.175,-2.472 v -0.198 z m -2.259,-1.326 v -0.555 c 0,-1.29 0.117,-2.938 1.175,-2.938 1.006,0 1.123,1.577 1.123,2.15 h 1.334 c 0,-2.131 -0.941,-3.476 -2.47,-3.476 -1.15,0 -2.575,0.466 -2.575,4.928 0,2.525 0.393,5.212 2.601,5.212 1.96,0 2.483,-1.612 2.483,-4.3 v -1.021 z"
           style="fill:#ffffff;fill-opacity:1;fill-rule:nonzero;stroke:none"
           id="path286" />
      </g>
      <g
         id="g288"
         transform="translate(306.1924,427.5518)">
        <path
           d="m 0,0 c -0.98,0 -1.189,-1.379 -1.189,-3.565 0,-2.598 0.378,-3.494 1.097,-3.494 1.084,0 1.281,1.326 1.281,3.637 C 1.189,-1.361 0.967,0 0,0 M 1.109,-7.22 H 1.084 C 0.822,-8.08 0.248,-8.6 -0.523,-8.6 c -1.098,0 -2.156,1.04 -2.156,4.945 0,3.314 0.653,5.196 2.3,5.196 1.006,0 1.358,-0.807 1.541,-1.434 H 1.189 V 1.29 H 2.521 V -11.502 H 1.109 Z"
           style="fill:#ffffff;fill-opacity:1;fill-rule:nonzero;stroke:none"
           id="path290" />
      </g>
      <g
         id="g292"
         transform="translate(313.667,420.3315)">
        <path
           d="m 0,0 h -0.039 c -0.353,-0.86 -1.02,-1.379 -1.804,-1.379 -1.045,0 -1.75,0.663 -1.75,3.153 V 8.51 h 1.41 V 1.595 c 0,-1.075 0.354,-1.433 0.954,-1.433 0.601,0 1.151,0.537 1.151,1.612 V 8.51 H 1.334 V -1.127 H 0 Z"
           style="fill:#ffffff;fill-opacity:1;fill-rule:nonzero;stroke:none"
           id="path294" />
      </g>
      <g
         id="g296"
         transform="translate(318.6992,420.3857)">
        <path
           d="M 0,0 C 1.033,0 1.215,1.182 1.215,3.637 1.215,5.769 1.033,7.273 0,7.273 -1.021,7.273 -1.203,5.769 -1.203,3.637 -1.203,1.182 -1.021,0 0,0 m 0,8.707 c 2.051,0 2.626,-2.078 2.626,-5.07 0,-2.992 -0.667,-5.071 -2.626,-5.071 -1.947,0 -2.613,2.079 -2.613,5.071 0,2.992 0.575,5.07 2.613,5.07"
           style="fill:#ffffff;fill-opacity:1;fill-rule:nonzero;stroke:none"
           id="path298" />
      </g>
      <path
         d="m 322.476,428.842 h 1.411 v -9.638 h -1.411 z m 0,3.296 h 1.411 v -1.935 h -1.411 z"
         style="fill:#ffffff;fill-opacity:1;fill-rule:nonzero;stroke:none"
         id="path300" />
      <g
         id="g302"
         transform="translate(328.5918,424.77)">
        <path
           d="m 0,0 c -0.366,-0.415 -1.149,-0.66 -1.567,-0.944 -0.407,-0.283 -0.576,-0.887 -0.576,-1.642 0,-0.849 0.287,-1.528 0.875,-1.528 0.85,0 1.268,0.925 1.268,2.415 z m 1.333,-3.247 c 0,-0.377 0.157,-0.717 0.365,-0.717 0.092,0 0.184,0.02 0.238,0.058 V -5.228 C 1.765,-5.34 1.517,-5.472 1.241,-5.472 c -0.626,0 -1.15,0.358 -1.188,1.339 H 0.026 c -0.379,-1.001 -0.927,-1.492 -1.751,-1.492 -1.124,0 -1.83,0.907 -1.83,2.852 0,2.263 0.681,2.736 1.635,3.188 L -0.822,0.85 C -0.313,1.057 0,1.264 0,2.152 c 0,0.924 -0.222,1.51 -0.967,1.51 -0.94,0 -1.072,-0.963 -1.072,-1.944 h -1.332 c 0,2.152 0.614,3.34 2.47,3.34 1.241,0 2.234,-0.699 2.234,-2.491 z"
           style="fill:#ffffff;fill-opacity:1;fill-rule:nonzero;stroke:none"
           id="path304" />
      </g>
      <g
         id="g306"
         transform="translate(369.0391,420.6899)">
        <path
           d="m 0,0 h -0.026 c -0.406,-1.181 -0.941,-1.738 -2.038,-1.738 -2.039,0 -2.772,2.079 -2.772,6.648 0,4.568 0.941,6.646 3.098,6.646 2.339,0 2.731,-2.527 2.731,-3.691 V 7.633 h -1.412 v 0.304 c 0,0.949 -0.287,2.078 -1.306,2.078 -1.059,0 -1.621,-0.967 -1.621,-5.052 0,-4.121 0.496,-5.16 1.503,-5.16 1.137,-0.018 1.556,1.111 1.556,3.906 H -1.855 V 5.25 H 1.124 V -1.486 H 0 Z"
           style="fill:#ffffff;fill-opacity:1;fill-rule:nonzero;stroke:none"
           id="path308" />
      </g>
      <g
         id="g310"
         transform="translate(374.6328,424.291)">
        <path
           d="m 0,0 c -0.365,-0.394 -1.149,-0.626 -1.568,-0.896 -0.406,-0.269 -0.575,-0.842 -0.575,-1.559 0,-0.805 0.288,-1.45 0.875,-1.45 0.849,0 1.268,0.877 1.268,2.293 z m 1.333,-3.081 c 0,-0.358 0.157,-0.681 0.366,-0.681 0.091,0 0.183,0.018 0.235,0.054 V -4.962 C 1.765,-5.069 1.516,-5.195 1.24,-5.195 c -0.626,0 -1.148,0.341 -1.187,1.272 H 0.025 c -0.379,-0.95 -0.927,-1.416 -1.75,-1.416 -1.125,0 -1.829,0.86 -1.829,2.706 0,2.15 0.68,2.597 1.633,3.028 l 1.099,0.412 C -0.314,1.004 0,1.2 0,2.042 0,2.92 -0.223,3.476 -0.968,3.476 c -0.94,0 -1.07,-0.914 -1.07,-1.846 h -1.333 c 0,2.044 0.614,3.171 2.469,3.171 1.241,0 2.235,-0.663 2.235,-2.364 z"
           style="fill:#ffffff;fill-opacity:1;fill-rule:nonzero;stroke:none"
           id="path312" />
      </g>
      <g
         id="g314"
         transform="translate(377.4033,428.8418)">
        <path
           d="M 0,0 H 1.411 V -1.505 H 1.438 C 1.751,-0.43 2.274,0.25 3.07,0.25 3.229,0.25 3.319,0.215 3.411,0.179 v -1.971 c -0.104,0.036 -0.353,0.108 -0.588,0.108 -0.64,0 -1.412,-0.394 -1.412,-2.186 V -9.638 H 0 Z"
           style="fill:#ffffff;fill-opacity:1;fill-rule:nonzero;stroke:none"
           id="path316" />
      </g>
      <g
         id="g318"
         transform="translate(383.7578,427.5518)">
        <path
           d="m 0,0 c -0.812,0 -1.099,-0.896 -1.099,-3.494 0,-2.185 0.209,-3.565 1.19,-3.565 0.967,0 1.188,1.362 1.188,3.422 C 1.279,-1.326 1.084,0 0,0 M 1.279,-7.166 H 1.254 C 1.071,-7.793 0.718,-8.6 -0.289,-8.6 c -1.646,0 -2.3,1.882 -2.3,5.196 0,4.281 1.099,4.945 2.17,4.945 0.759,0 1.333,-0.52 1.595,-1.38 H 1.201 V 4.443 H 2.613 V -8.348 H 1.279 Z"
           style="fill:#ffffff;fill-opacity:1;fill-rule:nonzero;stroke:none"
           id="path320" />
      </g>
      <g
         id="g322"
         transform="translate(391.2061,425.0977)">
        <path
           d="m 0,0 v 0.519 c 0,1.219 -0.287,2.15 -1.084,2.15 -0.903,0 -1.177,-1.218 -1.177,-2.472 V 0 Z m -2.261,-1.326 v -0.555 c 0,-1.29 0.118,-2.938 1.177,-2.938 1.007,0 1.124,1.576 1.124,2.15 h 1.332 c 0,-2.132 -0.941,-3.477 -2.469,-3.477 -1.15,0 -2.575,0.466 -2.575,4.928 0,2.526 0.393,5.213 2.601,5.213 1.96,0 2.482,-1.613 2.482,-4.3 v -1.021 z"
           style="fill:#ffffff;fill-opacity:1;fill-rule:nonzero;stroke:none"
           id="path324" />
      </g>
      <g
         id="g326"
         transform="translate(393.7813,428.8418)">
        <path
           d="m 0,0 h 1.333 v -1.129 h 0.039 c 0.353,0.86 1.02,1.379 1.803,1.379 1.071,0 1.752,-0.663 1.752,-2.615 V -9.638 H 3.515 v 6.611 c 0,1.253 -0.275,1.737 -0.98,1.737 -0.575,0 -1.124,-0.627 -1.124,-1.88 V -9.638 H 0 Z"
           style="fill:#ffffff;fill-opacity:1;fill-rule:nonzero;stroke:none"
           id="path328" />
      </g>
      <g
         id="g330"
         transform="translate(403.0986,426.0298)">
        <path
           d="m 0,0 v 0.25 c 0,0.771 -0.195,1.487 -0.928,1.487 -0.561,0 -1.006,-0.358 -1.006,-1.255 0,-0.752 0.249,-1.056 0.994,-1.414 l 0.901,-0.43 c 1.046,-0.484 1.529,-1.254 1.529,-2.777 0,-2.061 -1.097,-2.939 -2.522,-2.939 -1.777,0 -2.313,1.13 -2.313,2.993 v 0.358 h 1.254 v -0.305 c 0,-1.111 0.288,-1.719 1.098,-1.719 0.771,0 1.151,0.537 1.151,1.415 0,0.716 -0.275,1.182 -0.771,1.415 l -1.151,0.556 c -1.057,0.501 -1.502,1.236 -1.502,2.777 0,1.809 0.953,2.651 2.405,2.651 1.79,0 2.194,-1.434 2.194,-2.633 V 0 Z"
           style="fill:#ffffff;fill-opacity:1;fill-rule:nonzero;stroke:none"
           id="path332" />
      </g>
      <g
         id="g334"
         transform="translate(344.0918,424.749)">
        <path
           d="m 0,0 c -0.223,-0.932 -0.479,-1.998 0.222,-2.674 0.976,-0.943 2.3,-0.472 3.285,0.547 0.765,0.792 1.062,1.6 1.466,2.522 z m -4.889,8.058 c 0.527,-0.507 1.746,-0.647 2.49,-0.378 0.302,0.965 0.52,2.341 -0.181,3.018 C -3.131,11.229 -4.201,11.223 -4.802,10.6 -5.567,9.808 -5.563,8.71 -4.889,8.058 M 12.388,1.111 c -0.827,-3.36 -2.292,-5.827 -4.78,-8.402 -4.072,-4.217 -9.929,-6.93 -14.208,-2.799 -2.777,2.684 -1.768,6.632 0.462,9.893 -2.176,-0.251 -4.024,-0.162 -5.55,1.312 -3.729,3.6 -1.179,9.343 2.319,12.966 3.307,3.425 9.244,6.168 12.772,2.762 2.201,-2.127 2.329,-5.75 0.686,-8.702 l 3.584,0.257 c 0.508,2.026 0.389,4.057 0.319,6.038 l 7.962,0.132 -0.999,-5.489 8.834,0.985 -8.608,-8.915 z"
           style="fill:#eeef2c;fill-opacity:1;fill-rule:nonzero;stroke:none"
           id="path336" />
      </g>
    </g>
  </g>
</svg>
